<?xml version="1.0" encoding="UTF-8"?>
<!DOCTYPE svg PUBLIC "-//W3C//DTD SVG 1.1//EN" "http://www.w3.org/Graphics/SVG/1.1/DTD/svg11.dtd">
<!-- Creator: CorelDRAW 2017 -->
<svg xmlns="http://www.w3.org/2000/svg" xml:space="preserve" width="3.26576in" height="0.957008in" version="1.1" style="shape-rendering:geometricPrecision; text-rendering:geometricPrecision; image-rendering:optimizeQuality; fill-rule:evenodd; clip-rule:evenodd"
viewBox="0 0 3265.76 957.01"
 xmlns:xlink="http://www.w3.org/1999/xlink">
 <defs>
  <style type="text/css">
   <![CDATA[
    .fil2 {fill:#373435}
    .fil1 {fill:#F26B35}
    .fil0 {fill:#373435;fill-rule:nonzero}
    .fil3 {fill:#F26B35;fill-rule:nonzero}
   ]]>
  </style>
 </defs>
 <g id="Layer_x0020_1">
  <metadata id="CorelCorpID_0Corel-Layer"/>
  <g id="_779418448">
   <path class="fil0" d="M294.31 692.67l87.25 0 0 -421.11 -88.99 0 0 156.46c0,40.71 0.58,81.43 1.16,121.56l-1.16 0.57c-26.18,-36.64 -51.77,-72.12 -79.11,-108.76l-126.21 -169.84 -87.25 0 0 421.11 88.99 0 0 -156.46c0,-40.72 -0.58,-81.43 -1.16,-121.56l1.16 -0.58c26.18,36.65 51.76,72.13 79.1,108.77l126.22 169.84z"/>
   <polygon class="fil0" points="458.36,692.67 724.75,692.67 724.75,611.82 550.84,611.82 550.84,511.78 695.09,511.78 695.09,435 550.84,435 550.84,352.41 718.35,352.41 718.35,271.56 458.36,271.56 "/>
   <polygon class="fil0" points="1328.09,692.67 1420.57,692.67 1420.57,352.41 1556.68,352.41 1556.68,271.56 1191.99,271.56 1191.99,352.41 1328.09,352.41 "/>
   <polygon class="fil1" points="989.25,403.75 900.44,272.29 770.94,272.68 919.92,515.81 1373.71,9.09 1352.5,-0 "/>
   <path class="fil2" d="M558.05 949.45l15.53 7.56c16.46,-7.8 34.4,-32.58 47.09,-45.84l319.06 -350.13 81.91 131.74 137.06 0.02 -149.64 -243.76 -367.21 404.13c-18.79,19.7 -78.36,81.88 -83.8,96.29z"/>
   <path class="fil3" d="M1599.28 486.47c0,122.73 93.65,216.38 229.18,216.38 41.88,0 87.25,-8.72 123.31,-27.92l0 -94.23c-34.9,23.85 -75.62,38.97 -119.24,38.97 -86.67,0 -140.76,-59.33 -140.76,-134.37 0,-76.2 55.84,-133.2 137.27,-133.2 43.04,0 85.5,15.7 116.33,36.65l0 -93.65c-33.16,-16.28 -74.45,-26.17 -116.92,-26.17 -135.53,0 -229.18,95.39 -229.18,217.54zm414.15 209.98l276.87 0 0 -80.85 -184.39 0 0 -340.28 -92.48 0 0 421.13zm322.83 0l92.48 0 0 -421.13 -92.48 0 0 421.13zm151.23 -209.98c0,122.73 93.65,216.38 229.18,216.38 41.88,0 87.25,-8.72 123.31,-27.92l0 -94.23c-34.9,23.85 -75.62,38.97 -119.24,38.97 -86.67,0 -140.76,-59.33 -140.76,-134.37 0,-76.2 55.84,-133.2 137.28,-133.2 43.04,0 85.5,15.7 116.33,36.65l0 -93.65c-33.16,-16.28 -74.45,-26.17 -116.92,-26.17 -135.53,0 -229.18,95.39 -229.18,217.54zm414.15 209.98l92.48 0 0 -209.98 1.16 -0.58 156.47 210.57 114 0 -172.76 -225.69 159.38 -195.44 -109.93 0 -147.17 186.72 -1.16 -0.58 0 -186.13 -92.48 0 0 421.13z"/>
  </g>
 </g>
</svg>
